<svg width="26" height="26" viewBox="0 0 26 26" fill="none" xmlns="http://www.w3.org/2000/svg">
<mask id="path-1-inside-1_4_614" fill="white">
<path d="M4.99638 25.6965C5.09611 25.763 5.20831 25.7921 5.33298 25.7838C5.45764 25.7755 5.60725 25.709 5.78178 25.5843L13 20.3109L20.2182 25.5843C20.3928 25.709 20.5424 25.7755 20.667 25.7838C20.7917 25.7921 20.9039 25.763 21.0036 25.6965C21.1034 25.6217 21.1698 25.522 21.2031 25.3973C21.2363 25.281 21.2197 25.1106 21.1532 24.8862L18.3856 16.3964L25.6288 11.1604C25.8116 11.0274 25.9238 10.9027 25.9654 10.7864C26.0069 10.6617 26.0111 10.5453 25.9778 10.4373C25.9446 10.3292 25.8739 10.2378 25.7659 10.163C25.6579 10.0882 25.4875 10.0508 25.2548 10.0508L16.3286 10.0633L13.5859 1.57347C13.5111 1.34907 13.4239 1.19947 13.3241 1.12467C13.2244 1.04156 13.1164 1 13 1C12.8836 1 12.7756 1.04156 12.6759 1.12467C12.5761 1.19947 12.4889 1.34907 12.4141 1.57347L9.67139 10.0633L0.745232 10.0508C0.51252 10.0508 0.342142 10.0882 0.234097 10.163C0.126052 10.2378 0.0554076 10.3292 0.022163 10.4373C-0.0110815 10.5453 -0.00692595 10.6617 0.0346297 10.7864C0.0761854 10.9027 0.188386 11.0274 0.371231 11.1604L7.61438 16.3964L4.84678 24.8862C4.78029 25.1106 4.76367 25.281 4.79691 25.3973C4.83015 25.522 4.89664 25.6217 4.99638 25.6965Z"/>
</mask>
<path d="M4.99638 25.6965L3.79638 27.2965L3.84079 27.3298L3.88698 27.3606L4.99638 25.6965ZM5.78178 25.5843L6.94426 27.2118L6.95296 27.2056L6.9616 27.1993L5.78178 25.5843ZM13 20.3109L14.1798 18.696L13 17.834L11.8202 18.696L13 20.3109ZM20.2182 25.5843L19.0384 27.1993L19.047 27.2056L19.0557 27.2118L20.2182 25.5843ZM21.0036 25.6965L22.113 27.3606L22.1592 27.3298L22.2036 27.2965L21.0036 25.6965ZM21.2031 25.3973L19.28 24.8479L19.2752 24.8649L19.2706 24.882L21.2031 25.3973ZM21.1532 24.8862L23.0708 24.318L23.0631 24.2921L23.0547 24.2663L21.1532 24.8862ZM18.3856 16.3964L17.2139 14.7755L16.0321 15.6298L16.4841 17.0163L18.3856 16.3964ZM25.6288 11.1604L26.8005 12.7812L26.8051 12.7778L25.6288 11.1604ZM25.9654 10.7864L27.8489 11.459L27.856 11.439L27.8627 11.4188L25.9654 10.7864ZM25.2548 10.0508V8.05082L25.252 8.05083L25.2548 10.0508ZM16.3286 10.0633L14.4255 10.6781L14.8736 12.0653L16.3314 12.0633L16.3286 10.0633ZM13.5859 1.57347L15.4891 0.958646L15.4862 0.949816L15.4833 0.941013L13.5859 1.57347ZM13.3241 1.12467L12.0438 2.66111L12.0831 2.69392L12.1241 2.72467L13.3241 1.12467ZM12.6759 1.12467L13.8759 2.72467L13.9169 2.69392L13.9562 2.66111L12.6759 1.12467ZM12.4141 1.57347L10.5167 0.941013L10.5138 0.949816L10.5109 0.958646L12.4141 1.57347ZM9.67139 10.0633L9.6686 12.0633L11.1264 12.0653L11.5745 10.6781L9.67139 10.0633ZM0.745232 10.0508L0.748025 8.05083H0.745232V10.0508ZM0.0346297 10.7864L-1.86274 11.4188L-1.85601 11.439L-1.84885 11.459L0.0346297 10.7864ZM0.371231 11.1604L-0.805118 12.7778L-0.800463 12.7812L0.371231 11.1604ZM7.61438 16.3964L9.5159 17.0163L9.96786 15.6298L8.78608 14.7755L7.61438 16.3964ZM4.84678 24.8862L2.94526 24.2663L2.93687 24.2921L2.92918 24.318L4.84678 24.8862ZM4.79691 25.3973L6.72938 24.882L6.72482 24.8649L6.71996 24.8479L4.79691 25.3973ZM3.88698 27.3606C4.36941 27.6823 4.922 27.8156 5.46602 27.7794L5.19994 23.7882C5.49462 23.7686 5.82281 23.8438 6.10578 24.0324L3.88698 27.3606ZM5.46602 27.7794C6.14088 27.7344 6.65825 27.4161 6.94426 27.2118L4.6193 23.9569C4.61006 23.9635 4.64693 23.9354 4.7264 23.9001C4.80339 23.8659 4.96762 23.8037 5.19994 23.7882L5.46602 27.7794ZM6.9616 27.1993L14.1798 21.9259L11.8202 18.696L4.60196 23.9694L6.9616 27.1993ZM11.8202 21.9259L19.0384 27.1993L21.398 23.9694L14.1798 18.696L11.8202 21.9259ZM19.0557 27.2118C19.3418 27.4161 19.8591 27.7344 20.534 27.7794L20.8001 23.7882C21.0324 23.8037 21.1966 23.8659 21.2736 23.9001C21.3531 23.9354 21.3899 23.9635 21.3807 23.9569L19.0557 27.2118ZM20.534 27.7794C21.078 27.8156 21.6306 27.6823 22.113 27.3606L19.8942 24.0324C20.1772 23.8438 20.5054 23.7686 20.8001 23.7882L20.534 27.7794ZM22.2036 27.2965C22.6756 26.9426 22.9911 26.4545 23.1356 25.9127L19.2706 24.882C19.3061 24.7491 19.3671 24.6018 19.4642 24.4562C19.5617 24.3099 19.6794 24.1897 19.8036 24.0965L22.2036 27.2965ZM23.1261 25.9468C23.323 25.2577 23.161 24.6222 23.0708 24.318L19.2356 25.4544C19.2449 25.4856 19.2326 25.4545 19.225 25.3765C19.2183 25.3074 19.2054 25.109 19.28 24.8479L23.1261 25.9468ZM23.0547 24.2663L20.2871 15.7765L16.4841 17.0163L19.2517 25.5061L23.0547 24.2663ZM19.5573 18.0172L26.8005 12.7812L24.4571 9.53952L17.2139 14.7755L19.5573 18.0172ZM26.8051 12.7778C27.08 12.5779 27.5997 12.1566 27.8489 11.459L24.0819 10.1137C24.1741 9.85558 24.3037 9.6956 24.3635 9.6292C24.4266 9.55907 24.4672 9.53215 24.4524 9.54289L26.8051 12.7778ZM27.8627 11.4188C28.014 10.965 28.0643 10.4176 27.8894 9.84912L24.0663 11.0255C23.9579 10.6731 23.9999 10.3583 24.068 10.1539L27.8627 11.4188ZM27.8894 9.84912C27.7034 9.24473 27.3186 8.80548 26.9043 8.51864L24.6275 11.8074C24.4293 11.6702 24.1858 11.4138 24.0663 11.0255L27.8894 9.84912ZM26.9043 8.51864C26.2905 8.09372 25.6188 8.05083 25.2548 8.05083V12.0508C25.2715 12.0508 25.2217 12.0529 25.1283 12.0324C25.0379 12.0125 24.8452 11.9582 24.6275 11.8074L26.9043 8.51864ZM25.252 8.05083L16.3258 8.06329L16.3314 12.0633L25.2576 12.0508L25.252 8.05083ZM18.2318 9.44847L15.4891 0.958646L11.6828 2.18829L14.4255 10.6781L18.2318 9.44847ZM15.4833 0.941013C15.3781 0.625341 15.1313 -0.0199658 14.5241 -0.475333L12.1241 2.72467C11.8945 2.55245 11.7789 2.37285 11.7368 2.30071C11.6911 2.2224 11.6801 2.18048 11.6886 2.20592L15.4833 0.941013ZM14.6045 -0.411775C14.1897 -0.757473 13.6389 -1 13 -1V3C12.5939 3 12.2591 2.84058 12.0438 2.66111L14.6045 -0.411775ZM13 -1C12.3611 -1 11.8103 -0.757473 11.3955 -0.411775L13.9562 2.66111C13.7409 2.84058 13.4061 3 13 3V-1ZM11.4759 -0.475333C10.8687 -0.0199658 10.6219 0.625341 10.5167 0.941013L14.3114 2.20592C14.3199 2.18048 14.3089 2.2224 14.2632 2.30071C14.2211 2.37285 14.1055 2.55245 13.8759 2.72467L11.4759 -0.475333ZM10.5109 0.958646L7.76824 9.44847L11.5745 10.6781L14.3172 2.18829L10.5109 0.958646ZM9.67418 8.06329L0.748025 8.05083L0.742438 12.0508L9.6686 12.0633L9.67418 8.06329ZM0.745232 8.05083C0.381173 8.05083 -0.290544 8.09372 -0.904323 8.51864L1.37252 11.8074C1.15477 11.9582 0.962138 12.0125 0.871729 12.0324C0.778315 12.0529 0.728455 12.0508 0.745232 12.0508V8.05083ZM-0.904323 8.51864C-1.31864 8.80548 -1.70343 9.24473 -1.88939 9.84912L1.93372 11.0255C1.81424 11.4138 1.57074 11.6702 1.37252 11.8074L-0.904323 8.51864ZM-1.88939 9.84912C-2.06431 10.4176 -2.01399 10.965 -1.86274 11.4188L1.932 10.1539C2.00014 10.3583 2.04214 10.6731 1.93372 11.0255L-1.88939 9.84912ZM-1.84885 11.459C-1.59972 12.1566 -1.08001 12.5779 -0.805113 12.7778L1.54757 9.54289C1.53281 9.53215 1.57342 9.55907 1.63654 9.6292C1.6963 9.6956 1.82593 9.85558 1.91811 10.1137L-1.84885 11.459ZM-0.800463 12.7812L6.44269 18.0172L8.78608 14.7755L1.54292 9.53952L-0.800463 12.7812ZM5.71287 15.7765L2.94526 24.2663L6.74829 25.5061L9.5159 17.0163L5.71287 15.7765ZM2.92918 24.318C2.83905 24.6222 2.67699 25.2577 2.87386 25.9468L6.71996 24.8479C6.79455 25.109 6.78173 25.3074 6.77499 25.3765C6.76738 25.4545 6.75512 25.4856 6.76437 25.4544L2.92918 24.318ZM2.86444 25.9127C3.00892 26.4545 3.32444 26.9426 3.79638 27.2965L6.19638 24.0965C6.32055 24.1897 6.43828 24.3099 6.53581 24.4562C6.63285 24.6018 6.69395 24.7491 6.72938 24.882L2.86444 25.9127Z" fill="#FF9F0A" mask="url(#path-1-inside-1_4_614)"/>
</svg>
